<svg viewBox="0 0 100 100" fill="#43b29d" xmlns="http://www.w3.org/2000/svg"
    data-node-hydration="18">
    <circle cx="50" cy="50" r="4.0"></circle>
    <circle cx="46" cy="48" r="3.5"></circle>
    <circle cx="54" cy="52" r="3.8"></circle>
    <circle cx="52" cy="46" r="3.2"></circle>
    <circle cx="48" cy="54" r="3.6"></circle>
    <circle cx="44" cy="52" r="3.0"></circle>
    <circle cx="56" cy="48" r="3.2"></circle>
    <circle cx="40" cy="46" r="2.5"></circle>
    <circle cx="42" cy="42" r="2.0"></circle>
    <circle cx="48" cy="40" r="2.8"></circle>
    <circle cx="54" cy="40" r="2.2"></circle>
    <circle cx="58" cy="42" r="2.5"></circle>
    <circle cx="60" cy="46" r="2.6"></circle>
    <circle cx="58" cy="54" r="2.4"></circle>
    <circle cx="54" cy="58" r="2.7"></circle>
    <circle cx="48" cy="60" r="2.5"></circle>
    <circle cx="42" cy="58" r="2.2"></circle>
    <circle cx="40" cy="54" r="2.3"></circle>
    <circle cx="36" cy="42" r="1.5" fill="#74cdbd" fill-opacity="0.85"></circle>
    <circle cx="34" cy="48" r="1.8" fill="#74cdbd" fill-opacity="0.85"></circle>
    <circle cx="36" cy="52" r="1.6" fill="#74cdbd" fill-opacity="0.85"></circle>
    <circle cx="38" cy="38" r="1.4" fill="#74cdbd" fill-opacity="0.85"></circle>
    <circle cx="44" cy="36" r="1.7" fill="#74cdbd" fill-opacity="0.85"></circle>
    <circle cx="50" cy="34" r="1.5" fill="#74cdbd" fill-opacity="0.85"></circle>
    <circle cx="56" cy="36" r="1.6" fill="#74cdbd" fill-opacity="0.85"></circle>
    <circle cx="62" cy="38" r="1.3" fill="#74cdbd" fill-opacity="0.85"></circle>
    <circle cx="64" cy="42" r="1.8" fill="#74cdbd" fill-opacity="0.85"></circle>
    <circle cx="66" cy="48" r="1.5" fill="#74cdbd" fill-opacity="0.85"></circle>
    <circle cx="64" cy="52" r="1.7" fill="#74cdbd" fill-opacity="0.85"></circle>
    <circle cx="60" cy="58" r="1.4" fill="#74cdbd" fill-opacity="0.85"></circle>
    <circle cx="56" cy="62" r="1.6" fill="#74cdbd" fill-opacity="0.85"></circle>
    <circle cx="50" cy="64" r="1.5" fill="#74cdbd" fill-opacity="0.85"></circle>
    <circle cx="44" cy="64" r="1.7" fill="#74cdbd" fill-opacity="0.85"></circle>
    <circle cx="38" cy="62" r="1.3" fill="#74cdbd" fill-opacity="0.85"></circle>
    <circle cx="32" cy="40" r="0.8" fill="#bfeee7" fill-opacity="0.65"></circle>
    <circle cx="30" cy="45" r="0.9" fill="#bfeee7" fill-opacity="0.65"></circle>
    <circle cx="32" cy="50" r="0.7" fill="#bfeee7" fill-opacity="0.65"></circle>
    <circle cx="34" cy="36" r="0.8" fill="#bfeee7" fill-opacity="0.65"></circle>
    <circle cx="40" cy="33" r="0.9" fill="#bfeee7" fill-opacity="0.65"></circle>
    <circle cx="48" cy="30" r="0.8" fill="#bfeee7" fill-opacity="0.65"></circle>
    <circle cx="54" cy="31" r="0.7" fill="#bfeee7" fill-opacity="0.65"></circle>
    <circle cx="60" cy="33" r="0.9" fill="#bfeee7" fill-opacity="0.65"></circle>
    <circle cx="66" cy="35" r="0.8" fill="#bfeee7" fill-opacity="0.65"></circle>
    <circle cx="68" cy="40" r="0.7" fill="#bfeee7" fill-opacity="0.65"></circle>
    <circle cx="70" cy="45" r="0.9" fill="#bfeee7" fill-opacity="0.65"></circle>
    <circle cx="68" cy="50" r="0.8" fill="#bfeee7" fill-opacity="0.65"></circle>
    <circle cx="64" cy="56" r="0.7" fill="#bfeee7" fill-opacity="0.65"></circle>
    <circle cx="62" cy="62" r="0.9" fill="#bfeee7" fill-opacity="0.65"></circle>
    <circle cx="54" cy="66" r="0.8" fill="#bfeee7" fill-opacity="0.65"></circle>
    <circle cx="48" cy="68" r="0.9" fill="#bfeee7" fill-opacity="0.65"></circle>
    <circle cx="42" cy="67" r="0.7" fill="#bfeee7" fill-opacity="0.65"></circle>
    <circle cx="36" cy="65" r="0.8" fill="#bfeee7" fill-opacity="0.65"></circle>
    <circle cx="32" cy="58" r="0.9" fill="#bfeee7" fill-opacity="0.65"></circle>
</svg>